<svg xmlns="http://www.w3.org/2000/svg" viewBox="0 0 244 92.1" width="244" height="92" role="img" aria-label="VOLT">
  <g transform="translate(-78 -143.7)">
    <g fill="#FFFFFF">
      <path d="M142.8,174.4l-25.7,61.3h-13.6L78,174.4h14.8l18,44.4l18.3-44.4H142.8z"></path>
      <path d="M143.3,205.1c0-17.6,13.7-30.7,32.4-30.7c18.6,0,32.4,13,32.4,30.7s-13.8,30.7-32.4,30.7C157,235.8,143.3,222.7,143.3,205.1z M194.3,205.1c0-11.3-8-19-18.5-19s-18.5,7.7-18.5,19c0,11.3,8,19,18.5,19S194.3,216.4,194.3,205.1z"></path>
      <path d="M218.5,174.4h13.7l0.5,50.1h29.7v11.2H219L218.5,174.4z"></path>
      <path d="M307.4,192.1c-5.1-3-10.4-4.8-16.3-5.7v49.4h-13.7v-49.4c-5.8,0.8-11.3,2.7-16.4,5.7l-4.7-10.2c8.2-4.9,18-7.4,27.9-7.4c10,0,19.8,2.5,27.9,7.4L307.4,192.1z"></path>
    </g>
    <g fill="#FFC400">
      <rect x="277.4" y="143.7" width="13.5" height="21"></rect>
      <rect x="250.6" y="149.6" transform="matrix(0.866 -0.5 0.5 0.866 -45.5768 150.1403)" width="13.5" height="21"></rect>
      <rect x="300.4" y="153.4" transform="matrix(0.5 -0.866 0.866 0.5 16.7639 349.2833)" width="21" height="13.5"></rect>
    </g>
  </g>
</svg>
